<mxfile host="Electron" modified="2023-12-09T23:13:19.527Z" agent="Mozilla/5.0 (Windows NT 10.0; Win64; x64) AppleWebKit/537.36 (KHTML, like Gecko) draw.io/22.0.0 Chrome/114.0.5735.289 Electron/25.8.3 Safari/537.36" etag="ZhEtww5lR2XZK1_XcTjJ" version="22.0.0" type="device">
  <diagram name="Page-1" id="04qCjOkqEdCN6jr8k1c3">
    <mxGraphModel dx="2388" dy="713" grid="1" gridSize="10" guides="1" tooltips="1" connect="1" arrows="1" fold="1" page="1" pageScale="1" pageWidth="1169" pageHeight="827" math="0" shadow="0">
      <root>
        <mxCell id="0" />
        <mxCell id="1" parent="0" />
        <mxCell id="rV_JLZINEGz_MRyUMqZm-35" value="" style="group" vertex="1" connectable="0" parent="1">
          <mxGeometry x="-1160" y="100" width="1140" height="570" as="geometry" />
        </mxCell>
        <mxCell id="rV_JLZINEGz_MRyUMqZm-1" value="" style="shape=flexArrow;endArrow=classic;startArrow=classic;html=1;rounded=0;strokeWidth=7;width=130.58823529411765;startSize=22.666666666666668;endSize=22.666666666666668;startWidth=0;endWidth=0;" edge="1" parent="rV_JLZINEGz_MRyUMqZm-35">
          <mxGeometry width="100" height="100" relative="1" as="geometry">
            <mxPoint x="14.139053608383586" y="409.9973684210526" as="sourcePoint" />
            <mxPoint x="523.1913942322285" y="409.9973684210526" as="targetPoint" />
          </mxGeometry>
        </mxCell>
        <mxCell id="rV_JLZINEGz_MRyUMqZm-2" value="&lt;font style=&quot;font-size: 30px;&quot;&gt;PRÉ-PRODUÇÃO&lt;/font&gt;" style="edgeLabel;html=1;align=center;verticalAlign=middle;resizable=0;points=[];" vertex="1" connectable="0" parent="rV_JLZINEGz_MRyUMqZm-1">
          <mxGeometry x="-0.1233" y="-1" relative="1" as="geometry">
            <mxPoint x="35" y="-1" as="offset" />
          </mxGeometry>
        </mxCell>
        <mxCell id="rV_JLZINEGz_MRyUMqZm-4" value="Análise de literatura:&lt;br style=&quot;font-size: 12px;&quot;&gt;- Caracterização de personagem;&lt;br style=&quot;font-size: 12px;&quot;&gt;- Jogo digital.&lt;br style=&quot;font-size: 12px;&quot;&gt;" style="rounded=1;whiteSpace=wrap;html=1;fontSize=12;" vertex="1" parent="rV_JLZINEGz_MRyUMqZm-35">
          <mxGeometry x="52.045268666870044" y="24.704827586206893" width="104.9960078065434" height="129.70034482758624" as="geometry" />
        </mxCell>
        <mxCell id="rV_JLZINEGz_MRyUMqZm-5" style="edgeStyle=orthogonalEdgeStyle;rounded=0;orthogonalLoop=1;jettySize=auto;html=1;exitX=1;exitY=0.5;exitDx=0;exitDy=0;entryX=0;entryY=0.5;entryDx=0;entryDy=0;strokeWidth=6;fontSize=12;" edge="1" parent="rV_JLZINEGz_MRyUMqZm-35" target="rV_JLZINEGz_MRyUMqZm-4">
          <mxGeometry relative="1" as="geometry">
            <mxPoint x="27.34032565356595" y="89.5549999999999" as="sourcePoint" />
          </mxGeometry>
        </mxCell>
        <mxCell id="rV_JLZINEGz_MRyUMqZm-6" value="Desenvolvimento: primeira narrativa de jogo e conceptualização do protagonista." style="rounded=1;whiteSpace=wrap;html=1;fontSize=12;" vertex="1" parent="rV_JLZINEGz_MRyUMqZm-35">
          <mxGeometry x="169.39374798006577" y="24.704827586206893" width="104.9960078065434" height="129.70034482758624" as="geometry" />
        </mxCell>
        <mxCell id="rV_JLZINEGz_MRyUMqZm-7" style="edgeStyle=orthogonalEdgeStyle;rounded=0;orthogonalLoop=1;jettySize=auto;html=1;exitX=1;exitY=0.5;exitDx=0;exitDy=0;entryX=0;entryY=0.5;entryDx=0;entryDy=0;fontSize=12;" edge="1" parent="rV_JLZINEGz_MRyUMqZm-35" source="rV_JLZINEGz_MRyUMqZm-4" target="rV_JLZINEGz_MRyUMqZm-6">
          <mxGeometry relative="1" as="geometry" />
        </mxCell>
        <mxCell id="rV_JLZINEGz_MRyUMqZm-8" value="Testagem: equipa de orientação afirmou que a narrativa era muito complexa e irreal, para além de conter muitos cenários chocantes." style="rounded=1;whiteSpace=wrap;html=1;fontSize=12;" vertex="1" parent="rV_JLZINEGz_MRyUMqZm-35">
          <mxGeometry x="286.74222729326135" y="24.704827586206893" width="104.9960078065434" height="129.70034482758624" as="geometry" />
        </mxCell>
        <mxCell id="rV_JLZINEGz_MRyUMqZm-9" style="edgeStyle=orthogonalEdgeStyle;rounded=0;orthogonalLoop=1;jettySize=auto;html=1;exitX=1;exitY=0.5;exitDx=0;exitDy=0;entryX=0;entryY=0.5;entryDx=0;entryDy=0;fontSize=12;" edge="1" parent="rV_JLZINEGz_MRyUMqZm-35" source="rV_JLZINEGz_MRyUMqZm-6" target="rV_JLZINEGz_MRyUMqZm-8">
          <mxGeometry relative="1" as="geometry" />
        </mxCell>
        <mxCell id="rV_JLZINEGz_MRyUMqZm-10" value="Reflexão: primeira narrativa de jogo e conceptualização do protagonista abandonados." style="rounded=1;whiteSpace=wrap;html=1;fontSize=12;" vertex="1" parent="rV_JLZINEGz_MRyUMqZm-35">
          <mxGeometry x="404.09070660645693" y="24.704827586206893" width="104.9960078065434" height="129.70034482758624" as="geometry" />
        </mxCell>
        <mxCell id="rV_JLZINEGz_MRyUMqZm-11" style="edgeStyle=orthogonalEdgeStyle;rounded=0;orthogonalLoop=1;jettySize=auto;html=1;exitX=1;exitY=0.5;exitDx=0;exitDy=0;entryX=0;entryY=0.5;entryDx=0;entryDy=0;fontSize=12;" edge="1" parent="rV_JLZINEGz_MRyUMqZm-35" source="rV_JLZINEGz_MRyUMqZm-8" target="rV_JLZINEGz_MRyUMqZm-10">
          <mxGeometry relative="1" as="geometry" />
        </mxCell>
        <mxCell id="rV_JLZINEGz_MRyUMqZm-12" value="" style="endArrow=classic;startArrow=classic;html=1;rounded=0;fontSize=12;" edge="1" parent="rV_JLZINEGz_MRyUMqZm-35">
          <mxGeometry width="50" height="50" relative="1" as="geometry">
            <mxPoint x="39.692797160218" as="sourcePoint" />
            <mxPoint x="552.3203646862829" as="targetPoint" />
          </mxGeometry>
        </mxCell>
        <mxCell id="rV_JLZINEGz_MRyUMqZm-13" value="&lt;font style=&quot;font-size: 12px;&quot;&gt;NARRATIVA DE JOGO E PROTAGONISTA&lt;/font&gt;" style="edgeLabel;html=1;align=center;verticalAlign=middle;resizable=0;points=[];fontSize=12;" vertex="1" connectable="0" parent="rV_JLZINEGz_MRyUMqZm-12">
          <mxGeometry x="0.2599" y="-2" relative="1" as="geometry">
            <mxPoint x="-99" y="-22" as="offset" />
          </mxGeometry>
        </mxCell>
        <mxCell id="rV_JLZINEGz_MRyUMqZm-14" value="Desenvolvimento: segunda narrativa de jogo e conceptualização do protagonista." style="rounded=1;whiteSpace=wrap;html=1;fontSize=12;" vertex="1" parent="rV_JLZINEGz_MRyUMqZm-35">
          <mxGeometry x="169.39374798006577" y="172.9337931034483" width="104.9960078065434" height="129.70034482758624" as="geometry" />
        </mxCell>
        <mxCell id="rV_JLZINEGz_MRyUMqZm-15" value="Testagem: equipa de orientação sem nenhum problema a apontar." style="rounded=1;whiteSpace=wrap;html=1;fontSize=12;" vertex="1" parent="rV_JLZINEGz_MRyUMqZm-35">
          <mxGeometry x="286.74222729326135" y="172.9337931034483" width="104.9960078065434" height="129.70034482758624" as="geometry" />
        </mxCell>
        <mxCell id="rV_JLZINEGz_MRyUMqZm-16" style="edgeStyle=orthogonalEdgeStyle;rounded=0;orthogonalLoop=1;jettySize=auto;html=1;exitX=1;exitY=0.5;exitDx=0;exitDy=0;entryX=0;entryY=0.5;entryDx=0;entryDy=0;fontSize=12;" edge="1" parent="rV_JLZINEGz_MRyUMqZm-35" source="rV_JLZINEGz_MRyUMqZm-14" target="rV_JLZINEGz_MRyUMqZm-15">
          <mxGeometry relative="1" as="geometry" />
        </mxCell>
        <mxCell id="rV_JLZINEGz_MRyUMqZm-17" value="Análise de literatura:&lt;br style=&quot;font-size: 12px;&quot;&gt;- Caracterização de personagem;&lt;br style=&quot;font-size: 12px;&quot;&gt;- Depressão." style="rounded=1;whiteSpace=wrap;html=1;fontSize=12;" vertex="1" parent="rV_JLZINEGz_MRyUMqZm-35">
          <mxGeometry x="52.045268666870044" y="172.9337931034483" width="104.9960078065434" height="129.70034482758624" as="geometry" />
        </mxCell>
        <mxCell id="rV_JLZINEGz_MRyUMqZm-18" style="edgeStyle=orthogonalEdgeStyle;rounded=0;orthogonalLoop=1;jettySize=auto;html=1;exitX=1;exitY=0.5;exitDx=0;exitDy=0;entryX=0;entryY=0.5;entryDx=0;entryDy=0;strokeWidth=6;fontSize=12;" edge="1" parent="rV_JLZINEGz_MRyUMqZm-35" source="rV_JLZINEGz_MRyUMqZm-10" target="rV_JLZINEGz_MRyUMqZm-17">
          <mxGeometry relative="1" as="geometry">
            <Array as="points">
              <mxPoint x="521.4391859196525" y="89.55500000000002" />
              <mxPoint x="521.4391859196525" y="321.1627586206896" />
              <mxPoint x="21.164089900239773" y="321.1627586206896" />
              <mxPoint x="21.164089900239773" y="237.78396551724137" />
            </Array>
          </mxGeometry>
        </mxCell>
        <mxCell id="rV_JLZINEGz_MRyUMqZm-19" style="edgeStyle=orthogonalEdgeStyle;rounded=0;orthogonalLoop=1;jettySize=auto;html=1;exitX=1;exitY=0.5;exitDx=0;exitDy=0;entryX=0;entryY=0.5;entryDx=0;entryDy=0;fontSize=12;" edge="1" parent="rV_JLZINEGz_MRyUMqZm-35" source="rV_JLZINEGz_MRyUMqZm-17" target="rV_JLZINEGz_MRyUMqZm-14">
          <mxGeometry relative="1" as="geometry" />
        </mxCell>
        <mxCell id="rV_JLZINEGz_MRyUMqZm-20" value="Reflexão: segunda narrativa de jogo e conceptualização do protagonista aceites." style="rounded=1;whiteSpace=wrap;html=1;fontSize=12;" vertex="1" parent="rV_JLZINEGz_MRyUMqZm-35">
          <mxGeometry x="404.09070660645693" y="172.9337931034483" width="104.9960078065434" height="129.70034482758624" as="geometry" />
        </mxCell>
        <mxCell id="rV_JLZINEGz_MRyUMqZm-21" style="edgeStyle=orthogonalEdgeStyle;rounded=0;orthogonalLoop=1;jettySize=auto;html=1;exitX=1;exitY=0.5;exitDx=0;exitDy=0;entryX=0;entryY=0.5;entryDx=0;entryDy=0;fontSize=12;" edge="1" parent="rV_JLZINEGz_MRyUMqZm-35" source="rV_JLZINEGz_MRyUMqZm-15" target="rV_JLZINEGz_MRyUMqZm-20">
          <mxGeometry relative="1" as="geometry" />
        </mxCell>
        <mxCell id="rV_JLZINEGz_MRyUMqZm-22" value="" style="endArrow=classic;startArrow=classic;html=1;rounded=0;fontSize=12;" edge="1" parent="rV_JLZINEGz_MRyUMqZm-35">
          <mxGeometry width="50" height="50" relative="1" as="geometry">
            <mxPoint x="552.3203646862829" as="sourcePoint" />
            <mxPoint x="1120.5340539922825" as="targetPoint" />
          </mxGeometry>
        </mxCell>
        <mxCell id="rV_JLZINEGz_MRyUMqZm-23" value="&lt;font style=&quot;font-size: 12px;&quot;&gt;IMPLEMENTAÇÃO DO JOGO DIGITAL&lt;/font&gt;" style="edgeLabel;html=1;align=center;verticalAlign=middle;resizable=0;points=[];fontSize=12;" vertex="1" connectable="0" parent="rV_JLZINEGz_MRyUMqZm-22">
          <mxGeometry x="0.2599" y="-2" relative="1" as="geometry">
            <mxPoint x="-120" y="-22" as="offset" />
          </mxGeometry>
        </mxCell>
        <mxCell id="rV_JLZINEGz_MRyUMqZm-24" value="Análise de literatura:&lt;br style=&quot;font-size: 12px;&quot;&gt;- Caracterização de personagem (personalidade, arquétipos);&lt;br style=&quot;font-size: 12px;&quot;&gt;- Jogo digital (Visual Novel e jogos de aventura);&lt;br style=&quot;font-size: 12px;&quot;&gt;- Empatia (de traço e induzida);&lt;br style=&quot;font-size: 12px;&quot;&gt;- Depressão (ligações a outros conceitos)." style="rounded=1;whiteSpace=wrap;html=1;fontSize=12;" vertex="1" parent="rV_JLZINEGz_MRyUMqZm-35">
          <mxGeometry x="577.03" y="24.7" width="105" height="225.3" as="geometry" />
        </mxCell>
        <mxCell id="rV_JLZINEGz_MRyUMqZm-25" style="edgeStyle=orthogonalEdgeStyle;rounded=0;orthogonalLoop=1;jettySize=auto;html=1;exitX=1;exitY=0.5;exitDx=0;exitDy=0;entryX=0;entryY=0.5;entryDx=0;entryDy=0;strokeWidth=6;fontSize=12;" edge="1" parent="rV_JLZINEGz_MRyUMqZm-35" source="rV_JLZINEGz_MRyUMqZm-20" target="rV_JLZINEGz_MRyUMqZm-24">
          <mxGeometry relative="1" as="geometry" />
        </mxCell>
        <mxCell id="rV_JLZINEGz_MRyUMqZm-26" value="Desenvolvimento: primeiro protótipo do jogo." style="rounded=1;whiteSpace=wrap;html=1;fontSize=12;" vertex="1" parent="rV_JLZINEGz_MRyUMqZm-35">
          <mxGeometry x="694.37" y="24.7" width="105" height="135.3" as="geometry" />
        </mxCell>
        <mxCell id="rV_JLZINEGz_MRyUMqZm-27" style="edgeStyle=orthogonalEdgeStyle;rounded=0;orthogonalLoop=1;jettySize=auto;html=1;exitX=1;exitY=0.5;exitDx=0;exitDy=0;fontSize=12;" edge="1" parent="rV_JLZINEGz_MRyUMqZm-35" source="rV_JLZINEGz_MRyUMqZm-24" target="rV_JLZINEGz_MRyUMqZm-26">
          <mxGeometry relative="1" as="geometry">
            <Array as="points">
              <mxPoint x="682" y="92" />
            </Array>
          </mxGeometry>
        </mxCell>
        <mxCell id="rV_JLZINEGz_MRyUMqZm-28" value="Testagem: equipa de orientação afirmou que o protótipo podia ser avaliado/testado por especialistas e jogadores." style="rounded=1;whiteSpace=wrap;html=1;fontSize=12;" vertex="1" parent="rV_JLZINEGz_MRyUMqZm-35">
          <mxGeometry x="811.7222663259784" y="24.704827586206893" width="104.9960078065434" height="129.70034482758624" as="geometry" />
        </mxCell>
        <mxCell id="rV_JLZINEGz_MRyUMqZm-29" style="edgeStyle=orthogonalEdgeStyle;rounded=0;orthogonalLoop=1;jettySize=auto;html=1;exitX=1;exitY=0.5;exitDx=0;exitDy=0;fontSize=12;" edge="1" parent="rV_JLZINEGz_MRyUMqZm-35" source="rV_JLZINEGz_MRyUMqZm-26">
          <mxGeometry relative="1" as="geometry">
            <mxPoint x="810" y="92" as="targetPoint" />
          </mxGeometry>
        </mxCell>
        <mxCell id="rV_JLZINEGz_MRyUMqZm-30" value="Reflexão: primeira versão do jogo aceite." style="rounded=1;whiteSpace=wrap;html=1;fontSize=12;" vertex="1" parent="rV_JLZINEGz_MRyUMqZm-35">
          <mxGeometry x="929.0707456391739" y="24.704827586206893" width="104.9960078065434" height="129.70034482758624" as="geometry" />
        </mxCell>
        <mxCell id="rV_JLZINEGz_MRyUMqZm-31" style="edgeStyle=orthogonalEdgeStyle;rounded=0;orthogonalLoop=1;jettySize=auto;html=1;exitX=1;exitY=0.5;exitDx=0;exitDy=0;entryX=0;entryY=0.5;entryDx=0;entryDy=0;fontSize=12;" edge="1" parent="rV_JLZINEGz_MRyUMqZm-35" source="rV_JLZINEGz_MRyUMqZm-28" target="rV_JLZINEGz_MRyUMqZm-30">
          <mxGeometry relative="1" as="geometry" />
        </mxCell>
        <mxCell id="rV_JLZINEGz_MRyUMqZm-32" value="" style="shape=flexArrow;endArrow=classic;startArrow=classic;html=1;rounded=0;strokeWidth=7;width=130.58823529411765;startSize=22.666666666666668;endSize=22.666666666666668;startWidth=0;endWidth=0;" edge="1" parent="rV_JLZINEGz_MRyUMqZm-35">
          <mxGeometry width="100" height="100" relative="1" as="geometry">
            <mxPoint x="565.610074940674" y="395.2772413793104" as="sourcePoint" />
            <mxPoint x="1133.8237642466736" y="395.2772413793104" as="targetPoint" />
          </mxGeometry>
        </mxCell>
        <mxCell id="rV_JLZINEGz_MRyUMqZm-33" value="&lt;font style=&quot;font-size: 30px;&quot;&gt;PRODUÇÃO&lt;/font&gt;" style="edgeLabel;html=1;align=center;verticalAlign=middle;resizable=0;points=[];" vertex="1" connectable="0" parent="rV_JLZINEGz_MRyUMqZm-32">
          <mxGeometry x="-0.1233" y="-1" relative="1" as="geometry">
            <mxPoint x="56" y="-1" as="offset" />
          </mxGeometry>
        </mxCell>
        <mxCell id="rV_JLZINEGz_MRyUMqZm-3" value="&lt;font style=&quot;font-size: 18px;&quot;&gt;Focada no desenvolvimento da solução: plano de investigação, narrativa de jogo, conceptualização do protagonista e conceito de jogo.&lt;/font&gt;" style="text;html=1;strokeColor=none;fillColor=none;align=center;verticalAlign=middle;whiteSpace=wrap;rounded=0;" vertex="1" parent="rV_JLZINEGz_MRyUMqZm-35">
          <mxGeometry x="20" y="470" width="500" height="100" as="geometry" />
        </mxCell>
        <mxCell id="rV_JLZINEGz_MRyUMqZm-34" value="&lt;font style=&quot;font-size: 18px;&quot;&gt;Focada no desenvolvimento da solução: primeiro protótipo do jogo.&lt;/font&gt;" style="text;html=1;strokeColor=none;fillColor=none;align=center;verticalAlign=middle;whiteSpace=wrap;rounded=0;" vertex="1" parent="rV_JLZINEGz_MRyUMqZm-35">
          <mxGeometry x="577.03" y="470" width="528.21" height="86.47" as="geometry" />
        </mxCell>
        <mxCell id="rV_JLZINEGz_MRyUMqZm-71" value="&lt;font color=&quot;#ffffff&quot;&gt;Text&lt;/font&gt;" style="text;html=1;align=center;verticalAlign=middle;resizable=0;points=[];autosize=1;" vertex="1" parent="rV_JLZINEGz_MRyUMqZm-34">
          <mxGeometry x="170.97000000000003" y="34" width="50" height="30" as="geometry" />
        </mxCell>
      </root>
    </mxGraphModel>
  </diagram>
</mxfile>
